<?xml version="1.0" encoding="UTF-8"?>
<!DOCTYPE svg PUBLIC "-//W3C//DTD SVG 1.1//EN" "http://www.w3.org/Graphics/SVG/1.1/DTD/svg11.dtd">
<!-- Creator: CorelDRAW 2020 (64-Bit Versión de evaluación) -->
<svg xmlns="http://www.w3.org/2000/svg" xml:space="preserve" width="451.858mm" height="200.606mm" version="1.1" style="shape-rendering:geometricPrecision; text-rendering:geometricPrecision; image-rendering:optimizeQuality; fill-rule:evenodd; clip-rule:evenodd"
viewBox="0 0 24356.94 10813.45"
 xmlns:xlink="http://www.w3.org/1999/xlink"
 xmlns:xodm="http://www.corel.com/coreldraw/odm/2003">
 <defs>
  <style type="text/css">
   <![CDATA[
    .fil2 {fill:#807F82;fill-rule:nonzero}
    .fil1 {fill:#A5A4A6;fill-rule:nonzero}
    .fil0 {fill:#E2BCC4;fill-rule:nonzero}
    .fil3 {fill:#FFF212;fill-rule:nonzero}
   ]]>
  </style>
 </defs>
 <g id="Capa_x0020_1">
  <metadata id="CorelCorpID_0Corel-Layer"/>
  <g id="_1402807839264">
   <path class="fil0" d="M4101.11 374.87c0,64.22 -2.61,119.75 -7.85,166.61 -5.23,46.86 -13.08,85.04 -24.86,114.55 -11.77,27.77 -24.86,50.33 -41.87,62.48 -17.01,13.89 -35.33,20.83 -54.96,20.83l-1393.49 0 0 5709.95c0,27.77 -5.23,50.33 -15.7,71.16 -10.46,20.83 -27.47,36.44 -53.65,48.59 -24.86,12.15 -58.88,22.56 -100.75,31.24 -43.18,8.68 -95.52,12.14 -159.63,12.14 -61.5,0 -113.83,-3.47 -157.01,-12.14 -43.18,-8.68 -78.51,-19.09 -103.37,-31.24 -26.16,-12.15 -43.18,-27.77 -53.64,-48.59 -10.47,-20.83 -15.7,-43.39 -15.7,-71.16l0 -5709.95 -1393.49 0c-19.63,0 -37.95,-6.94 -54.96,-20.83 -17.01,-12.15 -30.09,-34.71 -40.56,-62.48 -9.16,-29.5 -18.32,-67.69 -24.86,-114.55 -6.54,-46.86 -9.16,-102.4 -9.16,-166.61 0,-64.22 2.62,-121.49 9.16,-170.08 6.54,-48.59 15.7,-88.51 24.86,-118.02 10.47,-31.24 23.55,-53.8 40.56,-65.95 17.01,-13.89 35.33,-20.82 54.96,-20.82l3446.42 0c19.63,0 37.95,6.94 54.96,20.82 17.01,12.15 30.09,34.71 41.87,65.95 11.78,29.51 19.63,69.42 24.86,118.02 5.24,48.59 7.85,105.87 7.85,170.08zm6110.4 6074.41c0,27.77 -5.23,52.07 -15.7,71.16 -10.47,20.83 -28.78,36.44 -54.96,48.59 -26.16,12.15 -60.18,22.56 -100.75,31.24 -40.56,8.68 -94.21,12.14 -159.63,12.14 -61.49,0 -113.83,-3.47 -157.01,-12.14 -43.18,-8.68 -77.2,-19.09 -102.06,-31.24 -24.86,-12.15 -43.18,-27.77 -53.65,-48.59 -10.46,-19.09 -15.7,-43.39 -15.7,-71.16l0 -5732.51 -7.85 0 -1746.77 5758.55c-6.54,24.29 -18.32,43.39 -31.4,60.74 -14.39,17.35 -35.32,31.24 -61.49,43.39 -27.48,12.15 -58.88,20.83 -96.82,26.04 -36.64,5.2 -81.13,6.94 -132.16,6.94 -53.65,0 -99.44,-3.47 -137.38,-10.41 -37.94,-6.94 -70.66,-15.62 -95.52,-27.77 -26.16,-12.15 -45.79,-26.03 -60.19,-43.39 -13.08,-17.36 -23.55,-34.71 -28.78,-55.54l-1672.18 -5758.55 -3.92 0 0 5732.51c0,27.77 -5.23,52.07 -15.7,71.16 -10.47,20.83 -28.78,36.44 -54.96,48.59 -26.17,12.15 -61.49,22.56 -103.37,31.24 -41.87,8.68 -95.52,12.14 -160.94,12.14 -64.11,0 -116.45,-3.47 -158.33,-12.14 -41.87,-8.68 -75.89,-19.09 -100.75,-31.24 -24.86,-12.15 -41.87,-27.77 -51.03,-48.59 -9.16,-19.09 -14.4,-43.39 -14.4,-71.16l0 -6051.85c0,-144.05 28.78,-244.71 85.05,-305.46 57.57,-60.74 121.68,-91.98 191.04,-91.98l405.62 0c82.43,0 155.7,10.41 217.2,31.24 62.8,19.09 116.45,52.07 163.55,95.45 47.11,45.13 86.36,100.67 116.45,168.35 31.41,67.69 58.88,147.52 82.44,239.51l1419.65 4765.81 19.63 0 1473.3 -4751.93c28.79,-100.66 60.19,-187.44 94.21,-258.59 34.02,-71.16 70.66,-128.43 111.22,-170.09 39.25,-43.39 85.05,-72.89 133.46,-91.98 49.72,-19.09 107.29,-27.77 171.4,-27.77l425.24 0c37.94,0 75.89,6.94 111.22,22.56 34.01,15.62 64.11,39.92 88.97,71.16 24.86,32.97 44.49,72.89 60.18,123.22 15.7,48.59 23.55,109.34 23.55,180.5l0 6051.85zm4592.62 -1754.64c0,206.53 -19.63,397.44 -58.88,570.99 -40.56,175.29 -95.51,331.49 -167.48,472.07 -71.96,138.85 -158.32,260.33 -259.07,366.2 -100.75,104.13 -214.58,192.65 -341.5,263.81 -126.92,71.15 -262.99,124.96 -406.92,159.67 -145.24,36.44 -310.1,53.8 -497.21,53.8l-1296.66 0c-58.87,0 -115.14,-26.04 -167.48,-78.1 -52.34,-53.8 -78.51,-145.78 -78.51,-277.69l0 -5869.62c0,-131.9 26.17,-223.88 78.51,-277.69 52.34,-52.07 108.61,-78.1 167.48,-78.1l1127.88 0c297.02,0 540.39,36.44 730.11,111.07 188.42,74.62 346.74,183.96 473.66,326.28 126.92,142.32 222.43,317.61 286.54,524.13 64.12,206.53 95.52,440.83 95.52,701.16 0,156.2 -14.39,305.46 -41.87,447.77 -28.78,142.32 -70.66,274.22 -125.61,393.97 -54.96,121.49 -122.99,229.09 -206.73,322.81 -83.74,95.46 -179.26,173.55 -286.55,234.3 136.08,34.71 263,95.46 380.76,185.7 116.45,90.25 219.81,204.79 308.79,343.64 87.66,138.85 157.02,301.99 208.05,487.69 51.03,187.44 77.2,392.23 77.2,616.12zm-989.18 -2946.96c0,-159.67 -17.01,-303.72 -49.72,-433.89 -32.71,-128.43 -85.05,-237.77 -157.01,-328.02 -71.96,-90.25 -164.87,-157.94 -280.01,-206.53 -115.14,-46.86 -266.92,-71.16 -456.64,-71.16l-681.7 0 0 2134.73 751.04 0c171.4,0 308.79,-29.51 414.77,-88.52 104.67,-60.74 191.03,-140.58 260.38,-239.5 68.04,-100.67 119.07,-218.68 150.47,-352.32 32.71,-133.64 48.42,-272.48 48.42,-414.8zm298.32 2999.02c0,-196.11 -23.55,-369.67 -70.65,-518.93 -47.11,-149.25 -116.45,-274.21 -206.73,-376.61 -91.59,-102.4 -204.12,-178.76 -341.5,-232.56 -136.08,-52.07 -308.79,-78.1 -515.53,-78.1l-788.99 0 0 2322.16 957.78 0c150.47,0 282.62,-24.29 395.15,-71.15 112.52,-46.86 210.66,-118.02 297.02,-211.74 85.05,-93.72 151.78,-210 200.19,-348.84 48.41,-138.85 73.27,-300.25 73.27,-484.22z"/>
   <path class="fil0" d="M16978.99 5162.21c0,209.8 -17.12,397.8 -51.35,564.91 -33.56,166.21 -83.54,307.89 -149.96,424.14 -65.73,116.25 -147.9,206.17 -245.12,268.84 -97.23,62.66 -208.84,94.45 -334.15,94.45 -53.41,0 -102.7,-7.26 -147.9,-20.89 -45.88,-14.53 -89.7,-36.33 -133.52,-67.21 -43.14,-29.97 -86.27,-68.12 -128.73,-114.44 -43.13,-45.41 -88.33,-99.9 -136.25,-161.66l0 1199.76c0,14.53 -2.74,26.34 -8.22,37.24 -5.48,10.9 -13.69,19.98 -26.02,27.25 -12.32,6.36 -28.76,11.81 -50.67,15.44 -21.22,3.63 -48.62,5.45 -82.17,5.45 -32.87,0 -59.57,-1.82 -80.79,-5.45 -21.91,-3.63 -39.03,-9.08 -51.35,-15.44 -13.01,-7.27 -21.91,-16.35 -26.7,-27.25 -4.79,-10.89 -6.85,-22.7 -6.85,-37.24l0 -3346.8c0,-16.35 2.06,-29.07 6.17,-39.05 4.1,-9.08 12.32,-18.17 23.97,-24.52 12.32,-7.27 27.38,-12.72 46.56,-15.44 18.49,-2.72 41.77,-3.63 68.47,-3.63 28.07,0 51.35,0.91 69.84,3.63 17.8,2.73 32.87,8.18 45.19,14.53 12.32,7.27 20.54,16.35 25.33,25.43 4.79,9.99 6.85,22.7 6.85,39.05l0 320.6c54.78,-74.48 107.5,-138.96 158.17,-194.36 50.66,-54.49 102.02,-99.91 153.38,-136.23 51.35,-36.33 104.07,-64.49 158.16,-82.65 54.09,-19.07 110.92,-28.15 171.18,-28.15 130.78,0 241.71,33.6 334.15,100.81 91.75,68.12 167.07,159.85 225.26,277.01 58.21,117.16 100.65,253.4 127.36,408.7 26.7,155.31 39.72,319.7 39.72,493.17zm-345.1 50.86c0,-122.61 -6.85,-241.59 -21.23,-356.02 -13.69,-114.44 -38.34,-216.16 -71.89,-305.17 -34.24,-89.01 -80.11,-159.85 -137.63,-213.43 -57.52,-53.58 -129.41,-79.92 -215,-79.92 -43.14,0 -84.9,8.18 -126.67,25.43 -41.08,17.25 -83.53,43.6 -126.67,79.92 -42.45,36.33 -87.65,84.47 -134.2,144.41 -46.56,59.94 -96.55,133.51 -148.58,220.7l0 952.73c91.07,148.04 177.34,260.66 258.82,339.68 82.17,78.11 167.75,117.16 257.45,117.16 82.85,0 154.06,-26.34 213.63,-79.92 59.57,-53.59 107.5,-124.43 144.48,-213.43 36.97,-89.01 63.68,-188 81.48,-298.81 17.12,-109.89 26.02,-221.6 26.02,-333.32zm1899.4 -1054.44c0,39.05 -0.68,71.75 -2.05,98.08 -1.37,26.34 -4.11,47.23 -8.21,62.67 -3.42,15.44 -8.9,26.34 -15.07,34.51 -5.48,8.17 -13.69,11.8 -24.64,11.8 -10.96,0 -23.97,-3.63 -39.03,-11.8 -15.75,-8.18 -32.87,-16.35 -52.04,-23.62 -19.17,-8.17 -41.09,-15.44 -65.05,-22.7 -23.97,-7.27 -49.99,-10.9 -78.06,-10.9 -33.56,0 -66.42,9.08 -98.6,26.34 -31.5,18.17 -65.73,47.23 -100.65,89.01 -35.6,40.87 -72.58,95.36 -111.61,162.57 -38.34,68.11 -81.48,150.76 -128.04,248.85l0 1575.76c0,14.53 -2.74,26.34 -8.21,36.33 -5.48,9.08 -13.7,18.17 -26.02,25.43 -12.32,6.36 -28.75,11.8 -50.66,15.44 -21.23,3.63 -48.62,5.45 -82.17,5.45 -32.86,0 -59.56,-1.82 -80.79,-5.45 -21.91,-3.63 -39.03,-9.08 -51.35,-15.44 -13.01,-7.27 -21.91,-16.35 -26.7,-25.43 -4.79,-9.99 -6.85,-21.8 -6.85,-36.33l0 -2395.89c0,-14.53 2.05,-26.34 6.16,-36.33 4.11,-9.08 11.64,-18.16 23.97,-26.34 12.32,-8.17 27.39,-13.62 46.56,-16.35 18.48,-2.72 43.82,-3.63 74.63,-3.63 29.44,0 54.09,0.91 73.27,3.63 19.86,2.73 34.92,8.18 45.87,16.35 10.27,8.18 18.49,17.25 23.29,26.34 4.11,9.99 6.85,21.8 6.85,36.33l0 348.76c49.3,-96.27 95.86,-174.38 139,-235.23 43.82,-59.94 84.9,-108.08 123.25,-142.59 39.03,-34.51 77.37,-58.12 115.03,-71.75 38.35,-13.63 76.69,-19.98 115.72,-19.98 17.11,0 36.97,0.91 58.88,3.63 21.91,2.72 45.19,8.17 69.16,14.53 23.96,7.27 45.87,15.44 65.05,24.52 19.17,9.08 32.86,17.25 41.08,26.34 8.21,9.08 13.7,17.25 15.75,25.43 2.74,8.17 5.48,18.16 7.53,29.97 2.05,12.72 3.42,30.88 4.11,54.49 0.68,24.52 0.68,56.31 0.68,97.18zm1859 938.19c0,69.02 -13.01,118.07 -39.03,148.04 -26.02,29.06 -56.14,43.59 -89.7,43.59l-1185.92 0c0,133.51 10.27,253.4 30.13,359.66 19.86,107.17 53.41,198.9 100.65,275.19 46.56,76.29 107.5,134.41 182.13,175.28 75.32,40.87 167.08,61.76 275.26,61.76 85.59,0 162.28,-9.08 228.69,-28.16 67.1,-18.16 125.31,-39.05 173.92,-61.76 48.62,-22.7 89.01,-43.59 120.51,-61.76 31.5,-19.07 54.78,-28.15 71.21,-28.15 9.58,0 17.8,2.72 25.33,9.08 6.85,6.36 13.01,15.44 16.43,28.15 4.11,11.8 7.54,29.06 9.59,50.86 2.05,22.7 2.74,49.05 2.74,80.83 0,22.7 -0.68,42.69 -2.05,59.94 -1.37,16.35 -2.74,31.79 -4.79,44.5 -2.05,13.62 -5.48,25.43 -10.27,36.33 -4.8,9.99 -10.27,19.98 -17.8,29.97 -7.53,9.99 -29.44,25.43 -65.05,47.23 -36.29,22.7 -82.86,43.6 -140.37,65.39 -57.52,20.89 -123.93,39.96 -199.25,56.31 -75.32,17.25 -155.43,25.43 -241.02,25.43 -148.58,0 -277.99,-27.24 -389.6,-82.65 -111.61,-54.49 -205.41,-136.23 -281.42,-244.31 -76,-108.98 -133.52,-244.31 -171.86,-407.79 -39.03,-162.57 -58.2,-352.39 -58.2,-569.46 0,-205.26 19.85,-390.53 60.25,-554.92 39.71,-163.48 97.91,-303.34 173.23,-417.78 75.32,-114.44 167.07,-201.63 273.89,-263.39 106.82,-60.85 226.64,-91.73 358.79,-91.73 141.74,0 262.24,29.97 361.53,90.82 99.97,59.94 181.45,141.68 245.81,243.4 63.68,101.72 110.92,221.6 141.06,359.66 30.12,137.14 45.19,284.27 45.19,440.49l0 79.92zm-332.77 -129.88c4.11,-230.69 -34.23,-412.33 -115.72,-544.03 -81.48,-131.69 -201.3,-197.08 -360.84,-197.08 -82.17,0 -154.06,19.98 -215.69,60.85 -61.62,40.87 -112.98,95.36 -154.75,163.48 -41.77,67.21 -73.95,146.22 -96.54,235.23 -22.6,89.92 -35.6,183.46 -38.35,281.55l981.88 0zm2384.86 1432.27c0,14.53 -2.05,26.34 -6.85,37.24 -4.8,10.9 -13.01,19.08 -23.97,25.43 -11.64,6.36 -26.7,10.9 -45.19,14.53 -19.17,3.63 -41.76,5.45 -68.47,5.45 -28.07,0 -51.35,-1.82 -69.84,-5.45 -19.17,-3.63 -34.24,-8.18 -46.57,-14.53 -11.64,-6.36 -20.54,-14.53 -26.01,-25.43 -4.8,-10.9 -7.54,-23.61 -7.54,-37.24l0 -318.78c-95.17,137.14 -193.77,243.4 -295.79,319.69 -102.71,76.29 -214.32,114.43 -336.19,114.43 -132.16,0 -245.13,-34.51 -338.25,-102.63 -93.8,-68.12 -169.81,-160.75 -228.01,-277.01 -57.52,-116.25 -99.97,-252.49 -126.67,-409.61 -26.7,-157.12 -40.4,-322.42 -40.4,-495.89 0,-206.17 16.44,-392.35 49.99,-557.65 33.55,-166.21 82.85,-307.89 148.58,-425.05 65.05,-117.16 146.53,-207.08 243.76,-269.74 96.55,-62.67 208.16,-94.46 335.51,-94.46 105.45,0 201.99,30.88 289.64,91.73 87.64,61.76 173.92,151.67 259.5,270.65l0 -1388.67c0,-12.72 2.05,-24.52 6.85,-36.33 4.79,-11.81 13.7,-19.98 27.39,-26.34 13.01,-6.36 30.13,-11.8 50.67,-16.34 21.23,-4.54 47.25,-6.36 79.43,-6.36 33.55,0 60.94,1.82 82.17,6.36 21.23,4.54 38.34,9.99 49.99,16.34 12.33,6.36 21.23,14.53 27.39,26.34 6.16,11.8 8.9,23.61 8.9,36.33l0 3542.98zm-332.77 -1686.57c-89.01,-148.04 -175.28,-260.66 -258.82,-337.86 -83.54,-77.2 -170.5,-116.25 -260.88,-116.25 -84.22,0 -155.43,26.34 -214.31,79.92 -58.89,53.59 -106.13,123.52 -143.11,210.71 -36.29,86.28 -62.99,185.28 -79.42,295.17 -17.13,109.89 -25.34,221.6 -25.34,335.13 0,120.79 6.85,238.86 21.23,354.21 13.69,115.34 38.35,217.98 72.58,307.89 34.92,89.91 80.8,161.66 138.32,216.15 56.83,53.59 129.41,80.83 215.68,80.83 43.83,0 86.28,-8.18 127.36,-23.62 40.4,-16.35 82.17,-42.69 124.62,-79.92 42.45,-37.24 87.64,-85.37 134.2,-145.31 46.57,-59.04 95.86,-131.69 147.9,-218.88l0 -958.17z"/>
   <path class="fil1" d="M19285.54 7109.91c0,220.54 200.06,400.91 462.81,431.02l0 200.5c0,35.09 37.57,65.1 81.24,65.1 43.8,0 81.24,-30.11 81.24,-65.1l0 -200.5c262.64,-30.11 462.81,-210.48 462.81,-431.02 0,-240.58 -243.85,-436 -544.06,-436 -300.21,0 -544.05,195.41 -544.05,436z"/>
   <path class="fil1" d="M16390.24 7109.91c0,220.54 200.05,400.91 462.8,431.02l0 200.5c0,35.09 37.58,65.1 81.25,65.1 43.79,0 81.24,-30.11 81.24,-65.1l0 -200.5c262.63,-30.11 462.8,-210.48 462.8,-431.02 0,-240.58 -243.85,-436 -544.05,-436 -300.2,0 -544.05,195.41 -544.05,436z"/>
   <path class="fil1" d="M21586.79 8904.06c-243.85,0 -444.02,-160.32 -444.02,-355.84 0,-195.41 200.05,-355.84 444.02,-355.84 243.85,0 444.02,160.33 444.02,355.84 0,195.41 -200.05,355.84 -444.02,355.84z"/>
   <path class="fil1" d="M15145.76 8904.06c-243.85,0 -444.03,-160.32 -444.03,-355.84 0,-195.41 200.06,-355.84 444.03,-355.84 243.83,0 444.02,160.33 444.02,355.84 0,195.41 -200.06,355.84 -444.02,355.84z"/>
   <path class="fil1" d="M23125.14 9420.21l0 170.4c-150.05,30.11 -262.64,135.29 -262.64,265.61 0,150.35 156.39,275.68 344,275.68 187.62,0 343.99,-125.32 343.99,-275.68 0,-130.31 -112.59,-235.5 -262.63,-265.61l0 -170.4c0,-35.1 -37.58,-65.1 -81.24,-65.1 -43.8,0 -81.24,30.1 -81.24,65.1l-0.25 0z"/>
   <path class="fil2" d="M16852.93 8021.99l0 1513.48c-262.64,30.11 -462.81,210.47 -462.81,431.02 0,240.58 243.85,436 544.05,436 300.21,0 544.06,-195.42 544.06,-436 0,-220.55 -200.06,-400.91 -462.81,-431.02l0 -1513.48c0,-35.1 -37.58,-65.11 -81.24,-65.11 -43.8,0 -81.24,30.11 -81.24,65.11z"/>
   <path class="fil1" d="M19748.23 8021.99l0 1513.48c-262.63,30.11 -462.81,210.47 -462.81,431.02 0,240.58 243.85,436 544.05,436 300.21,0 544.06,-195.42 544.06,-436 0,-220.55 -200.05,-400.91 -462.81,-431.02l0 -1513.48c0,-35.1 -37.57,-65.11 -81.24,-65.11 -43.79,0 -81.24,30.11 -81.24,65.11z"/>
   <path class="fil1" d="M22862.5 7220.18c0,130.32 112.59,235.5 262.64,265.61l0 1578.59c0,35.09 37.57,65.1 81.24,65.1 43.8,0 81.24,-30.11 81.24,-65.1l0 -1578.59c150.05,-30.11 262.64,-135.29 262.64,-265.61 0,-150.35 -156.39,-275.67 -344,-275.67 -187.61,0 -343.99,125.32 -343.99,275.67l0.24 0z"/>
   <path class="fil1" d="M20392.43 7771.43c0,195.42 175.05,355.84 412.68,385.85l0 325.73c0,35.1 37.57,65.11 81.24,65.11 43.79,0 81.24,-30.11 81.24,-65.11l0 -325.73c231.4,-30.11 412.67,-190.43 412.67,-385.85 0,-215.46 -218.84,-390.93 -487.82,-390.93 -268.86,0 -487.82,175.38 -487.82,390.93l-12.2 0z"/>
   <path class="fil1" d="M12506.85 7701.25l0 2290.26c-125.03,30.11 -212.61,120.24 -212.61,225.52 0,130.3 131.37,235.5 293.86,235.5 162.61,0 293.86,-105.29 293.86,-235.5 0,-105.29 -87.58,-195.41 -212.62,-225.52l0 -2290.26c0,-35.1 -37.57,-65.11 -81.24,-65.11 -43.79,0 -81.24,30.11 -81.24,65.11z"/>
   <path class="fil1" d="M20798.88 8768.76l0 110.27c-243.85,25.03 -431.46,190.43 -431.46,390.93 0,215.45 218.85,390.93 487.82,390.93 268.86,0 487.83,-175.38 487.83,-390.93 0,-190.44 -168.83,-345.78 -394.01,-385.85l0 -115.26c0,-35.09 -37.58,-65.11 -81.24,-65.11 -43.8,0 -81.25,30.12 -81.25,65.11l12.32 -0.1z"/>
   <path class="fil1" d="M12294.23 6859.36c0,105.29 87.58,195.41 212.61,225.52l0 340.79c0,35.09 37.58,65.1 81.24,65.1 43.8,0 81.24,-30.11 81.24,-65.1l0 -340.79c125.04,-30.11 212.62,-120.24 212.62,-225.52 0,-130.32 -131.38,-235.5 -293.86,-235.5 -162.6,0 -293.86,105.29 -293.86,235.5z"/>
   <path class="fil1" d="M5077.74 9966.48c0,-220.55 -200.05,-400.91 -462.81,-431.02l0 -200.5c0,-35.09 -37.57,-65.11 -81.24,-65.11 -43.79,0 -81.24,30.12 -81.24,65.11l0 200.5c-262.63,30.11 -462.81,210.47 -462.81,431.02 0,240.58 243.85,436 544.05,436 300.21,0 544.06,-195.42 544.06,-436z"/>
   <path class="fil1" d="M7966.82 9966.48c0,-220.55 -200.05,-400.91 -462.81,-431.02l0 -200.5c0,-35.09 -37.57,-65.11 -81.24,-65.11 -43.79,0 -81.24,30.12 -81.24,65.11l0 200.5c-262.63,30.11 -462.8,210.47 -462.8,431.02 0,240.58 243.85,436 544.04,436 300.21,0 544.06,-195.42 544.06,-436z"/>
   <path class="fil1" d="M2770.16 8177.33c243.85,0 444.02,160.32 444.02,355.83 0,195.42 -200.05,355.84 -444.02,355.84 -243.85,0 -444.03,-160.33 -444.03,-355.84 0,-195.42 200.05,-355.83 444.03,-355.83z"/>
   <path class="fil1" d="M9211.2 8177.33c243.85,0 444.02,160.32 444.02,355.83 0,195.42 -200.06,355.84 -444.02,355.84 -243.85,0 -444.03,-160.33 -444.03,-355.84 0,-195.42 200.06,-355.83 444.03,-355.83z"/>
   <path class="fil1" d="M1231.8 7656.18l0 -170.38c150.05,-30.11 262.64,-135.29 262.64,-265.61 0,-150.35 -156.39,-275.67 -344,-275.67 -187.62,0 -343.99,125.32 -343.99,275.67 0,130.32 112.59,235.5 262.63,265.61l0 170.38c0,35.1 37.58,65.11 81.24,65.11 43.79,0 81.25,-30.11 81.25,-65.11l0.24 0z"/>
   <path class="fil1" d="M7504.01 9054.41l0 -1513.48c262.64,-30.11 462.81,-210.48 462.81,-431.02 0,-240.58 -243.85,-436 -544.06,-436 -300.2,0 -544.04,195.41 -544.04,436 0,220.54 200.05,400.91 462.8,431.02l0 1513.48c0,35.09 37.58,65.1 81.24,65.1 43.8,0 81.24,-30.1 81.24,-65.1z"/>
   <path class="fil1" d="M4614.92 9054.41l0 -1513.48c262.64,-30.11 462.81,-210.48 462.81,-431.02 0,-240.58 -243.85,-436 -544.06,-436 -300.2,0 -544.05,195.41 -544.05,436 0,220.54 200.06,400.91 462.81,431.02l0 1513.48c0,35.09 37.57,65.1 81.24,65.1 43.8,0 81.24,-30.1 81.24,-65.1z"/>
   <path class="fil1" d="M1494.44 9856.21c0,-130.31 -112.59,-235.5 -262.64,-265.61l0 -1578.59c0,-35.09 -37.57,-65.11 -81.24,-65.11 -43.79,0 -81.24,30.11 -81.24,65.11l0 1578.59c-150.04,30.11 -262.64,135.29 -262.64,265.61 0,150.35 156.39,275.68 344,275.68 187.62,0 343.99,-125.32 343.99,-275.68l-0.24 0z"/>
   <path class="fil1" d="M3970.86 9304.96c0,-195.42 -175.05,-355.84 -412.67,-385.84l0 -325.73c0,-35.1 -37.58,-65.11 -81.24,-65.11 -43.8,0 -81.24,30.12 -81.24,65.11l0 325.73c-231.42,30.1 -412.69,190.42 -412.69,385.84 0,215.45 218.84,390.93 487.83,390.93 268.86,0 487.82,-175.38 487.82,-390.93l12.2 0z"/>
   <path class="fil1" d="M11856.44 9380.13l0 -2290.25c125.03,-30.11 212.62,-120.25 212.62,-225.53 0,-130.31 -131.38,-235.5 -293.86,-235.5 -162.61,0 -293.86,105.29 -293.86,235.5 0,105.29 87.58,195.42 212.62,225.53l0 2290.25c0,35.1 37.57,65.1 81.24,65.1 43.79,0 81.24,-30.1 81.24,-65.1z"/>
   <path class="fil1" d="M3558.18 8307.63l0 -110.27c243.85,-25.03 431.45,-190.43 431.45,-390.93 0,-215.46 -218.84,-390.93 -487.81,-390.93 -268.85,0 -487.82,175.38 -487.82,390.93 0,190.43 168.83,345.77 394.01,385.84l0 115.26c0,35.09 37.58,65.11 81.24,65.11 43.8,0 81.24,-30.11 81.24,-65.11l-12.31 0.09z"/>
   <path class="fil1" d="M12069.05 10217.03c0,-105.29 -87.59,-195.41 -212.62,-225.52l0 -340.79c0,-35.09 -37.57,-65.11 -81.24,-65.11 -43.8,0 -81.24,30.11 -81.24,65.11l0 340.79c-125.04,30.11 -212.62,120.24 -212.62,225.52 0,130.3 131.38,235.5 293.86,235.5 162.61,0 293.86,-105.29 293.86,-235.5z"/>
   <path class="fil3" d="M13438.57 9320.01l0 270.59c-150.04,30.11 -262.63,135.29 -262.63,265.61 0,150.35 156.38,275.68 343.99,275.68 187.61,0 344,-125.32 344,-275.68 0,-130.31 -112.59,-235.5 -262.64,-265.61l0 -270.59c0,-35.1 -37.57,-65.11 -81.24,-65.11 -43.8,0 -81.24,30.11 -81.24,65.11l-0.25 0z"/>
   <path class="fil3" d="M13182.16 7220.18c0,130.32 106.24,235.5 256.4,265.61l0 1538.5c0,35.09 37.58,65.11 81.24,65.11 43.8,0 81.24,-30.12 81.24,-65.11l0 -1538.5c156.39,-25.03 268.85,-135.29 268.85,-270.59 0,-150.35 -156.38,-275.67 -343.99,-275.67 -187.61,0 -344,125.32 -344,275.67l0.25 4.98z"/>
   <path class="fil3" d="M17709.63 6779.2c0,260.63 243.85,476.08 556.62,506.19l0 2074.7c0,35.1 37.57,65.11 81.24,65.11 43.8,0 81.24,-30.11 81.24,-65.11l0 -2074.7c312.65,-30.11 556.62,-245.56 556.62,-506.19 0,-280.66 -287.64,-511.17 -637.86,-511.17 -350.22,0 -637.86,230.51 -637.86,511.17z"/>
   <path class="fil3" d="M15377.16 7811.52c0,195.42 175.04,355.84 412.67,385.85l0 320.74c0,35.1 37.57,65.11 81.24,65.11 43.8,0 81.24,-30.11 81.24,-65.11l0 -320.74c231.4,-30.11 412.68,-190.43 412.68,-385.85 0,-215.46 -218.84,-390.93 -487.81,-390.93 -268.86,0 -487.82,175.38 -487.82,390.93l-12.2 0z"/>
   <path class="fil3" d="M22280.88 8578.33l0 400.91c-168.83,30.1 -300.21,150.35 -300.21,300.7 0,170.39 168.83,305.68 381.45,305.68 212.62,0 381.45,-135.29 381.45,-305.68 0,-145.37 -131.37,-270.6 -300.21,-300.7l0 -400.91c0,-35.09 -37.57,-65.11 -81.24,-65.11 -43.79,0 -81.24,30.12 -81.24,65.11z"/>
   <path class="fil3" d="M14276.49 8513.12l0 466.11c-168.83,30.1 -300.21,150.35 -300.21,300.7 0,170.39 168.83,305.68 381.45,305.68 212.62,0 381.45,-135.29 381.45,-305.68 0,-145.37 -131.38,-270.6 -300.21,-300.7l0 -466.11c0,-35.1 -37.57,-65.11 -81.24,-65.11 -43.8,0 -81.24,30.11 -81.24,65.11z"/>
   <path class="fil3" d="M23981.84 7666.15l0 2325.36c-125.02,30.11 -212.62,120.24 -212.62,225.52 0,130.3 131.38,235.5 293.86,235.5 162.61,0 293.86,-105.29 293.86,-235.5 0,-105.29 -87.58,-195.41 -212.62,-225.52l0 -2325.36c0,-35.09 -37.57,-65.1 -81.24,-65.1 -43.79,0 -81.24,30.1 -81.24,65.1z"/>
   <path class="fil3" d="M18266.25 9645.73l0 150.36c-312.64,30.11 -556.62,245.56 -556.62,506.18 0,280.66 287.64,511.17 637.86,511.17 350.22,0 637.86,-230.51 637.86,-511.17 0,-260.62 -243.85,-476.08 -556.62,-506.18l0 -150.36c0,-35.09 -37.57,-65.1 -81.24,-65.1 -43.79,0 -81.24,30.11 -81.24,65.1z"/>
   <path class="fil3" d="M15789.83 8803.76l0 115.25c-243.85,25.03 -431.46,190.44 -431.46,390.93 0,215.46 218.84,390.93 487.83,390.93 268.86,0 487.82,-175.38 487.82,-390.93 0,-190.43 -168.84,-345.76 -387.68,-385.84l0 -120.24c0,-35.1 -37.57,-65.11 -81.24,-65.11 -43.79,0 -81.24,30.11 -81.24,65.11l5.98 -0.1z"/>
   <path class="fil3" d="M13988.84 7801.55c0,145.36 125.04,260.61 287.64,295.71l0 120.24c0,35.1 37.57,65.1 81.24,65.1 43.8,0 81.24,-30.1 81.24,-65.1l0 -115.26c175.04,-25.03 312.64,-150.35 312.64,-300.7 0,-170.4 -168.82,-305.69 -381.44,-305.69 -212.62,0 -381.45,135.29 -381.45,305.69l0.12 0z"/>
   <path class="fil3" d="M21993.24 7801.55c0,145.36 125.03,260.61 287.64,295.71l0 125.32c0,35.1 37.58,65.11 81.24,65.11 43.8,0 81.24,-30.11 81.24,-65.11l0 -125.32c175.05,-25.03 312.65,-150.35 312.65,-300.7 0,-170.39 -168.83,-305.68 -381.45,-305.68 -212.62,0 -381.45,135.29 -381.45,305.68l0.12 4.99z"/>
   <path class="fil3" d="M23769.22 6849.29c0,105.28 87.59,195.42 212.62,225.53l0 310.67c0,35.09 37.57,65.1 81.24,65.1 43.8,0 81.24,-30.1 81.24,-65.1l0 -310.67c125.04,-30.11 212.62,-120.25 212.62,-225.53 0,-130.31 -131.38,-235.5 -293.86,-235.5 -162.61,0 -293.86,105.28 -293.86,235.5z"/>
   <path class="fil3" d="M10924.72 7756.38l0 -270.59c150.04,-30.11 262.63,-135.29 262.63,-265.61 0,-150.35 -156.38,-275.67 -343.99,-275.67 -187.61,0 -343.99,125.32 -343.99,275.67 0,130.32 112.59,235.5 262.63,265.61l0 270.59c0,35.09 37.57,65.11 81.24,65.11 43.79,0 81.24,-30.11 81.24,-65.11l0.25 0z"/>
   <path class="fil3" d="M11181.13 9856.21c0,-130.31 -106.25,-235.5 -256.41,-265.61l0 -1538.5c0,-35.09 -37.57,-65.11 -81.24,-65.11 -43.8,0 -81.24,30.11 -81.24,65.11l0 1538.5c-156.39,25.03 -268.86,135.29 -268.86,270.59 0,150.35 156.38,275.68 343.99,275.68 187.61,0 344,-125.32 344,-275.68l-0.25 -4.98z"/>
   <path class="fil3" d="M6647.31 10297.19c0,-260.62 -243.85,-476.08 -556.61,-506.18l0 -2074.71c0,-35.09 -37.57,-65.1 -81.24,-65.1 -43.8,0 -81.24,30.12 -81.24,65.1l0 2074.71c-312.64,30.1 -556.62,245.56 -556.62,506.18 0,280.67 287.64,511.18 637.86,511.18 350.22,0 637.86,-230.51 637.86,-511.18z"/>
   <path class="fil3" d="M8979.91 9269.86c0,-195.41 -175.05,-355.83 -412.68,-385.84l0 -320.74c0,-35.09 -37.57,-65.11 -81.24,-65.11 -43.8,0 -81.24,30.11 -81.24,65.11l0 320.74c-231.41,30.11 -412.67,190.43 -412.67,385.84 0,215.46 218.84,390.93 487.81,390.93 268.86,0 487.83,-175.38 487.83,-390.93l12.2 0z"/>
   <path class="fil3" d="M2082.28 8503.15l0 -400.91c168.83,-30.11 300.21,-150.35 300.21,-300.7 0,-170.4 -168.83,-305.69 -381.45,-305.69 -212.62,0 -381.45,135.29 -381.45,305.69 0,145.36 131.38,270.59 300.21,300.7l0 400.91c0,35.09 37.57,65.1 81.24,65.1 43.8,0 81.24,-30.1 81.24,-65.1z"/>
   <path class="fil3" d="M10080.46 8568.25l0 -466.1c168.82,-30.12 300.21,-150.35 300.21,-300.7 0,-170.4 -168.83,-305.69 -381.45,-305.69 -212.62,0 -381.45,135.29 -381.45,305.69 0,145.36 131.38,270.59 300.21,300.7l0 466.1c0,35.1 37.57,65.11 81.24,65.11 43.8,0 81.24,-30.11 81.24,-65.11z"/>
   <path class="fil3" d="M375.11 9410.14l0 -2325.35c125.04,-30.11 212.62,-120.24 212.62,-225.52 0,-130.31 -131.38,-235.5 -293.86,-235.5 -162.61,0 -293.86,105.27 -293.86,235.5 0,105.28 87.58,195.41 212.62,225.52l0 2325.35c0,35.09 37.57,65.11 81.24,65.11 43.79,0 81.24,-30.11 81.24,-65.11z"/>
   <path class="fil3" d="M6097.04 7435.64l0 -150.35c312.65,-30.11 556.62,-245.57 556.62,-506.19 0,-280.66 -287.64,-511.17 -637.86,-511.17 -350.22,0 -637.86,230.51 -637.86,511.17 0,260.62 243.85,476.08 556.61,506.19l0 150.35c0,35.1 37.57,65.11 81.24,65.11 43.8,0 81.24,-30.11 81.24,-65.11z"/>
   <path class="fil3" d="M8573.33 8277.62l0 -115.26c243.85,-25.03 431.46,-190.43 431.46,-390.93 0,-215.46 -218.84,-390.93 -487.82,-390.93 -268.85,0 -487.81,175.38 -487.81,390.93 0,190.44 168.83,345.77 387.67,385.85l0 120.25c0,35.09 37.57,65.1 81.24,65.1 43.8,0 81.24,-30.11 81.24,-65.1l-5.98 0.09z"/>
   <path class="fil3" d="M10368.1 9274.85c0,-145.37 -125.04,-260.62 -287.64,-295.72l0 -120.24c0,-35.09 -37.57,-65.11 -81.24,-65.11 -43.79,0 -81.24,30.12 -81.24,65.11l0 115.26c-175.05,25.03 -312.64,150.35 -312.64,300.7 0,170.38 168.82,305.69 381.45,305.69 212.61,0 381.44,-135.3 381.44,-305.69l-0.12 0z"/>
   <path class="fil3" d="M2369.92 9274.85c0,-145.37 -125.04,-260.62 -287.64,-295.72l0 -125.32c0,-35.09 -37.57,-65.1 -81.24,-65.1 -43.8,0 -81.24,30.1 -81.24,65.1l0 125.32c-175.05,25.03 -312.64,150.35 -312.64,300.71 0,170.38 168.82,305.68 381.44,305.68 212.62,0 381.45,-135.29 381.45,-305.68l-0.12 -4.99z"/>
   <path class="fil3" d="M587.73 10227.01c0,-105.29 -87.58,-195.42 -212.62,-225.53l0 -310.67c0,-35.09 -37.57,-65.11 -81.24,-65.11 -43.8,0 -81.24,30.11 -81.24,65.11l0 310.67c-125.04,30.11 -212.62,120.24 -212.62,225.53 0,130.31 131.38,235.5 293.86,235.5 162.61,0 293.86,-105.29 293.86,-235.5z"/>
  </g>
 </g>
</svg>
